<?xml version="1.0" encoding="UTF-8"?>
<svg xmlns="http://www.w3.org/2000/svg" xmlns:xlink="http://www.w3.org/1999/xlink" width="2400" height="2400" viewBox="0 0 2400 2400">
<rect x="-240" y="-240" width="2880" height="2880" fill="rgb(100%, 100%, 100%)" fill-opacity="1"/>
<path fill-rule="evenodd" fill="rgb(87.889099%, 99.609375%, 100%)" fill-opacity="1" d="M 522.265625 1520.820312 C 471.636719 1536.238281 388.40625 1537.078125 360.027344 1481.285156 C 341.003906 1439.691406 340.429688 1359.808594 363.984375 1322.019531 C 390.683594 1279.199219 452.109375 1223.371094 483.285156 1304.171875 C 507.160156 1366.039062 489.078125 1358.539062 536.277344 1418.710938 C 575.210938 1468.339844 588.03125 1497.679688 522.265625 1520.820312 "/>
<path fill-rule="evenodd" fill="rgb(87.889099%, 99.609375%, 100%)" fill-opacity="1" d="M 1758.261719 772.621094 C 1784.359375 788.289062 1825.070312 826.46875 1833.738281 854.398438 C 1845.820312 893.359375 1770.738281 870.300781 1751.128906 867.921875 C 1696.210938 861.910156 1627.699219 865.980469 1611.609375 799.148438 C 1606.160156 776.511719 1617.339844 666.859375 1650.558594 676.121094 C 1670.96875 681.808594 1707.910156 736.359375 1733.171875 755.789062 C 1741.410156 762.140625 1749.421875 767.148438 1758.261719 772.621094 "/>
<path fill-rule="evenodd" fill="rgb(87.889099%, 99.609375%, 100%)" fill-opacity="1" d="M 327.054688 949.921875 C 344.035156 992.800781 370.0625 923.679688 382.90625 910.070312 C 423.792969 866.75 476.695312 874.851562 498.949219 821.128906 C 509.199219 796.398438 495.792969 798.96875 479.617188 810.109375 C 440.890625 836.789062 403.765625 833.589844 361.933594 861.230469 C 329.777344 882.480469 313.664062 911.039062 327.054688 949.921875 "/>
<path fill-rule="evenodd" fill="rgb(87.889099%, 99.609375%, 100%)" fill-opacity="1" d="M 1926 958.910156 C 1864.339844 905.53125 1793.988281 893.628906 1715.761719 894.191406 C 1658.871094 894 1586.589844 881.589844 1560.320312 823.609375 C 1537.160156 772.511719 1600.898438 671.5 1485.011719 644.261719 C 1434 632.269531 1331.421875 638.160156 1283.308594 659.351562 C 1237.359375 679.589844 1215.488281 697.210938 1159.078125 694.980469 C 1092.820312 692.371094 1048.648438 639.179688 987.851562 611.230469 L 980.496094 607.839844 C 910.03125 576.699219 861.269531 608.011719 818.5 655.210938 C 764.871094 714.398438 729.421875 705.28125 653.007812 713.03125 C 603.8125 718.019531 581.167969 737.28125 559.800781 778.359375 C 529.183594 839.089844 529.652344 861.429688 461.890625 894.570312 C 392.515625 928.5 409.179688 979.5 401.449219 1045.890625 C 393.140625 1117.28125 394.703125 1164.371094 458.027344 1216.808594 C 558.84375 1296.78125 507.386719 1307.21875 563.050781 1391.03125 C 611.796875 1464.414062 649.160156 1482.046875 568.699219 1550.097656 C 514.535156 1594.105469 421.589844 1642.3125 493.007812 1719.742188 L 498.628906 1725.621094 C 554.714844 1779.542969 647.972656 1797 719.886719 1779.011719 C 820.320312 1753.21875 858.601562 1723.710938 943.058594 1675.0625 C 1050.550781 1613.148438 1025.691406 1740.207031 1120.609375 1757.742188 C 1275.230469 1786.308594 1379.710938 1619.210938 1528.820312 1648.476562 C 1570.460938 1657.632812 1600.648438 1677.496094 1635.628906 1686.53125 C 1658.621094 1692.464844 1675.070312 1688.160156 1695.429688 1680.222656 C 1772.929688 1643.371094 1807.578125 1577.390625 1884.050781 1536.851562 C 1944.160156 1504.980469 2050.480469 1473.988281 2069.109375 1405.0625 C 2079.339844 1367.179688 2085.429688 1353.570312 2057.328125 1314.921875 C 2018.210938 1261.089844 1992.96875 1257.140625 1959.378906 1187.519531 C 1937.339844 1141.851562 1929.410156 1111.398438 1951.328125 1065.769531 C 1976.039062 1018.78125 1967.511719 996.839844 1926 958.910156 "/>
<path fill-rule="evenodd" fill="rgb(98.826599%, 89.0625%, 76.951599%)" fill-opacity="1" d="M 880.984375 641.710938 L 881.160156 618.980469 C 887.851562 612.980469 889.746094 610.261719 890.703125 601.320312 L 891.921875 597 C 893.992188 592.050781 897.066406 586.789062 898.703125 581.511719 C 899.324219 579.519531 899.738281 577.519531 899.8125 575.53125 L 898.671875 570.800781 L 898.378906 569.949219 L 897.578125 569.390625 L 897.632812 567.480469 L 899.570312 561 L 899.9375 557.359375 L 897.773438 555.371094 L 895.4375 555.679688 L 893.988281 556.980469 L 893.550781 557.609375 L 892.226562 557.859375 L 891.296875 558.621094 L 890.648438 559.601562 L 889.808594 559.128906 L 887.753906 560.050781 L 884.777344 563.609375 L 878.363281 572.160156 L 874.464844 577.46875 L 874.066406 578.511719 L 870.902344 581.101562 L 863.8125 587.660156 L 861.605469 588.679688 L 859.160156 589.488281 L 860.453125 587.019531 C 860.992188 585.71875 861.421875 584.71875 861.753906 583.871094 C 862.828125 581.101562 862.84375 579.980469 862.117188 575.570312 C 861.664062 572.800781 860.78125 571.191406 858.878906 570.949219 C 857.726562 570.808594 856.203125 571.160156 854.171875 572.070312 L 854.402344 578.890625 C 854.402344 578.890625 853.054688 583.261719 852.828125 584.039062 C 852.597656 584.820312 849.664062 590.820312 849.664062 590.820312 L 850.128906 596.089844 L 855.101562 610.25 L 858.710938 618.429688 L 858.886719 640.089844 L 880.984375 641.710938 "/>
<path fill-rule="evenodd" fill="rgb(94.921875%, 56.834412%, 10.984802%)" fill-opacity="1" d="M 1418.230469 1584.050781 C 1486.898438 1555.175781 1520.058594 1563.898438 1531.960938 1605.484375 C 1545.058594 1651.257812 1532.769531 1734.574219 1522.089844 1798.980469 C 1520.019531 1817.886719 1523.210938 1847.902344 1497.328125 1846.917969 C 1462.171875 1845.578125 1464.398438 1798.921875 1458.441406 1760.871094 L 1454.761719 1736.027344 L 1418.230469 1584.050781 "/>
<path fill-rule="evenodd" fill="rgb(94.921875%, 56.834412%, 10.984802%)" fill-opacity="1" d="M 1381.019531 1579.761719 C 1534.121094 1612.132812 1424.5 1711.070312 1337.691406 1800.464844 C 1325.21875 1814.816406 1310.730469 1841.300781 1290.03125 1825.738281 C 1261.898438 1804.605469 1290.320312 1767.535156 1307.121094 1732.875 L 1318.25 1710.359375 L 1381.019531 1579.761719 "/>
<path fill-rule="evenodd" fill="rgb(55.271912%, 39.208984%, 70.117188%)" fill-opacity="1" d="M 1348.078125 1989.527344 C 1343.871094 1991.714844 1325.609375 2006.273438 1325.609375 2006.273438 C 1309.75 2015.679688 1294.769531 2025.15625 1276.398438 2028.371094 C 1272.449219 2029.0625 1268.558594 2029.761719 1265.230469 2030.589844 C 1259.519531 2032.015625 1252.828125 2039.164062 1259.320312 2045.183594 C 1272.851562 2057.734375 1311.761719 2049.964844 1329.449219 2049.171875 C 1334.910156 2048.925781 1340.371094 2049.171875 1345.828125 2049.175781 C 1354.21875 2049.179688 1365.320312 2049.976562 1373.238281 2047.488281 C 1385.289062 2043.710938 1382.261719 2036.429688 1376.859375 2014.53125 C 1376.371094 2012.523438 1373.929688 2001.976562 1372.601562 1994.199219 C 1371.699219 1989.007812 1366.03125 1984.9375 1366.648438 1983.386719 L 1361.25 1982.445312 L 1362.429688 1994.355469 L 1348.078125 1989.527344 "/>
<path fill-rule="evenodd" fill="rgb(98.826599%, 89.0625%, 76.951599%)" fill-opacity="1" d="M 1340.941406 1513.910156 C 1316.710938 1528.886719 1229.910156 1449.945312 1203.71875 1430.820312 L 1219.238281 1409.601562 L 1315.871094 1460.589844 C 1333 1469.835938 1353.398438 1506.210938 1340.941406 1513.910156 "/>
<path fill-rule="evenodd" fill="rgb(55.271912%, 39.208984%, 70.117188%)" fill-opacity="1" d="M 1672.058594 1863.050781 C 1672.429688 1867.777344 1678.671875 1890.28125 1678.671875 1890.28125 C 1681.109375 1908.5625 1683.960938 1926.054688 1679.71875 1944.222656 C 1678.808594 1948.117188 1677.929688 1951.976562 1677.390625 1955.359375 C 1676.460938 1961.175781 1680.421875 1970.132812 1688.5 1966.519531 C 1705.339844 1958.992188 1713.441406 1920.144531 1719.640625 1903.554688 C 1721.558594 1898.433594 1723.921875 1893.507812 1726.058594 1888.488281 C 1729.351562 1880.769531 1734.429688 1870.871094 1735.25 1862.609375 C 1736.488281 1850.039062 1728.609375 1849.972656 1706.339844 1846.359375 C 1702.949219 1845.808594 1679.628906 1841.898438 1676.671875 1838.949219 L 1670.710938 1848.160156 L 1682.128906 1851.738281 L 1672.058594 1863.050781 "/>
<path fill-rule="evenodd" fill="rgb(99.609375%, 89.0625%, 78.514099%)" fill-opacity="1" d="M 1488.390625 1845.390625 C 1550.628906 1858.9375 1613.960938 1864.90625 1675.460938 1878.257812 C 1697.421875 1864.777344 1705.25 1856.054688 1693.828125 1844.074219 C 1665.171875 1834.980469 1579.878906 1814.066406 1525.300781 1799.121094 C 1524.171875 1798.8125 1523.050781 1798.503906 1521.949219 1798.199219 C 1506.28125 1793.859375 1516.171875 1813.132812 1507.960938 1809.875 L 1503.171875 1816.226562 C 1503.171875 1816.226562 1503.578125 1819.390625 1499.289062 1824.839844 C 1495 1830.285156 1491.671875 1831.421875 1490.03125 1832.480469 C 1488.390625 1833.539062 1488.390625 1845.390625 1488.390625 1845.390625 "/>
<path fill-rule="evenodd" fill="rgb(94.921875%, 74.414062%, 59.959412%)" fill-opacity="1" d="M 1497.28125 1302.800781 L 1461.441406 1323.921875 L 1460.761719 1344.21875 L 1481.410156 1359.691406 L 1510.101562 1356.960938 L 1512.550781 1347.261719 L 1513.199219 1307.800781 L 1497.28125 1302.800781 "/>
<path fill-rule="evenodd" fill="rgb(100%, 85.546875%, 41.967773%)" fill-opacity="1" d="M 1471.640625 1345.789062 C 1492.699219 1344.078125 1525.320312 1348.378906 1545.171875 1351.890625 C 1552.5 1354.808594 1539.410156 1358.449219 1544.878906 1363.558594 C 1556.519531 1374.421875 1546.070312 1407.789062 1549.308594 1429.910156 C 1533.761719 1538.234375 1537.03125 1519.808594 1538.550781 1605.84375 C 1500.480469 1653.503906 1425.988281 1644.726562 1364.039062 1607.386719 C 1367.738281 1533.328125 1385.660156 1429.433594 1411.539062 1364.480469 C 1419.601562 1344.261719 1426.25 1336.898438 1471.640625 1345.789062 "/>
<path fill-rule="evenodd" fill="rgb(49.414062%, 49.414062%, 100%)" fill-opacity="1" d="M 1367.039062 1397.011719 L 1332.421875 1441.183594 C 1303.339844 1465.703125 1311.761719 1488.574219 1315.941406 1502.605469 C 1328.820312 1544.773438 1347.128906 1517.847656 1371.789062 1487.109375 C 1392.519531 1461.265625 1418.289062 1427.734375 1434.199219 1399.648438 C 1480.539062 1335.191406 1425.539062 1313.480469 1367.039062 1397.011719 "/>
<path fill-rule="evenodd" fill="rgb(94.921875%, 74.414062%, 59.959412%)" fill-opacity="1" d="M 1460.769531 1343.859375 L 1487.671875 1341.730469 L 1510.25 1346.261719 L 1511.878906 1346.351562 L 1512.339844 1347 C 1513 1347.910156 1511.410156 1348.601562 1510.699219 1349 C 1491.378906 1359.929688 1476.589844 1362.449219 1460.769531 1343.859375 "/>
<path fill-rule="evenodd" fill="rgb(24.705505%, 10.984802%, 18.821716%)" fill-opacity="1" d="M 1458.988281 1241.378906 C 1448.160156 1250.578125 1435.988281 1295.398438 1445.558594 1282.601562 L 1455.679688 1269.058594 L 1463.238281 1252.148438 L 1467.851562 1241.800781 L 1458.988281 1241.378906 "/>
<path fill-rule="evenodd" fill="rgb(98.826599%, 89.0625%, 76.951599%)" fill-opacity="1" d="M 1517.851562 1310.128906 C 1511.980469 1318.78125 1505.859375 1328.980469 1497.769531 1335.371094 C 1483.28125 1346.820312 1464.128906 1348.621094 1449.128906 1331.738281 C 1448.679688 1331.230469 1448.25 1330.71875 1447.859375 1330.199219 C 1438.738281 1318.148438 1440.941406 1301.261719 1444.25 1290.601562 C 1444.5 1289.78125 1444.601562 1288.929688 1444.75 1288.121094 C 1448.460938 1271.230469 1451.679688 1259.191406 1461.921875 1249.640625 C 1479.839844 1232.941406 1522.761719 1236.011719 1527.769531 1267.851562 C 1530.378906 1284.378906 1523.800781 1295.421875 1517.851562 1310.128906 "/>
<path fill-rule="evenodd" fill="rgb(24.705505%, 10.984802%, 18.821716%)" fill-opacity="1" d="M 1522.21875 1299.769531 C 1524.839844 1293.539062 1527.078125 1287.609375 1527.960938 1281.078125 L 1530.890625 1285.570312 L 1527.828125 1296.21875 C 1526.5 1296.621094 1524.898438 1297.539062 1523.039062 1299.089844 C 1522.769531 1299.308594 1522.5 1299.539062 1522.21875 1299.769531 "/>
<path fill-rule="evenodd" fill="rgb(24.705505%, 10.984802%, 18.821716%)" fill-opacity="1" d="M 1526.660156 1280.960938 C 1522.328125 1256.179688 1487.351562 1254.289062 1466.929688 1249.398438 C 1439.421875 1255.941406 1460.839844 1209.210938 1488.960938 1205.851562 C 1494.53125 1205.191406 1490.789062 1229.328125 1492.039062 1221.101562 C 1493.480469 1211.550781 1505.03125 1208.570312 1526.371094 1239.378906 C 1540.988281 1258.28125 1536.300781 1281.679688 1527.828125 1296.21875 L 1526.660156 1280.960938 "/>
<path fill-rule="evenodd" fill="rgb(24.705505%, 10.984802%, 18.821716%)" fill-opacity="1" d="M 1528.128906 1270.648438 C 1528.5 1270.621094 1511.75 1287.910156 1522.21875 1299.769531 L 1524 1297.238281 L 1529.421875 1283.328125 L 1528.128906 1270.648438 "/>
<path fill-rule="evenodd" fill="rgb(98.826599%, 89.0625%, 76.951599%)" fill-opacity="1" d="M 1515.441406 1314.078125 L 1508.929688 1313.371094 L 1513.199219 1307.800781 C 1514.179688 1306.929688 1519.128906 1302.328125 1523.039062 1299.089844 C 1537.878906 1286.769531 1535.769531 1314.828125 1515.441406 1314.078125 "/>
<path fill-rule="evenodd" fill="rgb(98.826599%, 89.0625%, 76.951599%)" fill-opacity="1" d="M 1446.558594 1289.660156 L 1448.109375 1278.691406 C 1448.019531 1270.191406 1442.828125 1266.800781 1440.691406 1275.808594 C 1437.570312 1288.921875 1440.140625 1288.109375 1444.28125 1296.210938 L 1446.558594 1289.660156 "/>
<path fill-rule="evenodd" fill="rgb(24.705505%, 10.984802%, 18.821716%)" fill-opacity="1" d="M 1533.511719 1259.660156 C 1512.859375 1264.550781 1467.75 1275 1454.371094 1248.21875 L 1454.398438 1240.949219 L 1478.140625 1226.828125 L 1495.550781 1235.578125 C 1495.550781 1235.578125 1511.089844 1243.820312 1512.78125 1244.691406 C 1514.46875 1245.558594 1533.511719 1259.660156 1533.511719 1259.660156 "/>
<path fill-rule="evenodd" fill="rgb(24.705505%, 10.984802%, 18.821716%)" fill-opacity="1" d="M 1505.109375 1247.308594 C 1507.019531 1260.960938 1511.300781 1290.660156 1528.5 1283.308594 L 1532.371094 1279.359375 L 1534.710938 1259.070312 L 1526.238281 1254.519531 C 1526.238281 1254.519531 1518.460938 1250.691406 1517.628906 1250.261719 C 1516.789062 1249.828125 1505.109375 1247.308594 1505.109375 1247.308594 "/>
<path fill-rule="evenodd" fill="rgb(98.826599%, 89.0625%, 76.951599%)" fill-opacity="1" d="M 1220.421875 1442.796875 L 1198.710938 1427.226562 C 1188.371094 1429.425781 1184.480469 1429.34375 1175.320312 1424.0625 L 1170.378906 1422.222656 C 1164.238281 1420.761719 1157.109375 1420.042969 1150.96875 1417.945312 C 1148.648438 1417.152344 1146.460938 1416.160156 1144.53125 1414.855469 L 1140.820312 1410.492188 L 1140.21875 1409.628906 L 1140.230469 1408.476562 L 1138.390625 1407.210938 L 1130.890625 1404.558594 L 1127.171875 1402.390625 L 1126.789062 1398.960938 L 1128.699219 1396.949219 L 1130.929688 1396.480469 L 1131.839844 1396.5 L 1132.988281 1395.421875 L 1134.351562 1395.050781 L 1135.738281 1395.121094 L 1135.871094 1393.988281 L 1138.171875 1392.679688 L 1143.609375 1392.320312 L 1156.179688 1392.148438 L 1163.910156 1392.121094 L 1165.179688 1392.460938 L 1169.828125 1391.25 L 1180.96875 1389.058594 L 1183.46875 1387.671875 L 1185.929688 1385.910156 L 1182.691406 1385.429688 C 1181.078125 1385.039062 1179.828125 1384.75 1178.800781 1384.480469 C 1175.429688 1383.578125 1174.351562 1382.820312 1170.660156 1379.078125 C 1168.339844 1376.71875 1167.421875 1374.769531 1168.519531 1372.800781 C 1169.179688 1371.609375 1170.570312 1370.410156 1172.839844 1369.109375 L 1179.160156 1374.050781 C 1179.160156 1374.050781 1184.238281 1375.800781 1185.140625 1376.121094 C 1186.039062 1376.441406 1193.769531 1377.808594 1193.769531 1377.808594 L 1198.449219 1381.898438 L 1208.460938 1396.429688 L 1213.730469 1405.519531 L 1234.191406 1420.6875 L 1220.421875 1442.796875 "/>
<path fill-rule="evenodd" fill="rgb(99.609375%, 89.0625%, 78.514099%)" fill-opacity="1" d="M 1279.449219 1811.492188 C 1294.539062 1865.699219 1320.648438 1923.328125 1334.039062 1973.878906 L 1339.96875 1995.148438 C 1351.320312 2001.054688 1357.421875 2003.222656 1372.601562 1994.199219 C 1367.050781 1963.476562 1348.128906 1871.335938 1336.238281 1816.300781 C 1335.589844 1813.285156 1334.96875 1810.367188 1334.390625 1807.566406 C 1334.199219 1806.59375 1333.949219 1805.796875 1333.679688 1805.148438 L 1333.730469 1805.273438 C 1335.078125 1803.578125 1336.390625 1801.957031 1337.691406 1800.464844 C 1338.210938 1799.929688 1338.730469 1799.394531 1339.25 1798.855469 C 1338.941406 1798.664062 1338.609375 1798.46875 1338.269531 1798.269531 C 1329.75 1793.40625 1305.351562 1792.117188 1285.398438 1787.777344 C 1283.710938 1787.410156 1282.191406 1787.105469 1280.890625 1786.882812 C 1278.769531 1793.585938 1277.699219 1799.96875 1278.308594 1805.875 C 1278.5 1807.800781 1278.878906 1809.675781 1279.449219 1811.492188 Z M 1333.480469 1804.710938 L 1333.378906 1804.511719 C 1333.410156 1804.578125 1333.449219 1804.644531 1333.480469 1804.710938 Z M 1333.339844 1804.4375 C 1333.289062 1804.351562 1333.238281 1804.269531 1333.191406 1804.191406 C 1333.238281 1804.269531 1333.289062 1804.351562 1333.339844 1804.4375 Z M 1333.179688 1804.175781 C 1333.128906 1804.09375 1333.078125 1804.015625 1333.03125 1803.9375 C 1333.078125 1804.015625 1333.128906 1804.09375 1333.179688 1804.175781 Z M 1332.988281 1803.894531 C 1332.949219 1803.828125 1332.898438 1803.769531 1332.851562 1803.710938 C 1332.898438 1803.769531 1332.949219 1803.828125 1332.988281 1803.894531 Z M 1332.839844 1803.695312 C 1332.789062 1803.632812 1332.738281 1803.578125 1332.691406 1803.519531 C 1332.738281 1803.578125 1332.789062 1803.632812 1332.839844 1803.695312 Z M 1332.628906 1803.453125 L 1332.519531 1803.347656 C 1332.558594 1803.378906 1332.589844 1803.414062 1332.628906 1803.453125 Z M 1331.539062 1802.691406 C 1331.488281 1802.671875 1331.449219 1802.652344 1331.398438 1802.636719 C 1331.449219 1802.652344 1331.488281 1802.671875 1331.539062 1802.691406 Z M 1331.351562 1802.621094 C 1331.300781 1802.601562 1331.238281 1802.585938 1331.191406 1802.570312 C 1331.238281 1802.585938 1331.300781 1802.601562 1331.351562 1802.621094 Z M 1291.628906 1806.910156 C 1291.609375 1806.898438 1291.578125 1806.882812 1291.550781 1806.871094 C 1291.578125 1806.882812 1291.609375 1806.898438 1291.628906 1806.910156 Z M 1291.539062 1806.871094 C 1291.519531 1806.859375 1291.488281 1806.851562 1291.460938 1806.84375 C 1291.488281 1806.851562 1291.519531 1806.859375 1291.539062 1806.871094 Z M 1291.328125 1806.816406 C 1291.289062 1806.8125 1291.261719 1806.808594 1291.230469 1806.804688 C 1291.261719 1806.808594 1291.289062 1806.8125 1291.328125 1806.816406 Z M 1290.269531 1806.890625 C 1290.140625 1806.917969 1290.011719 1806.945312 1289.878906 1806.976562 C 1290.011719 1806.945312 1290.140625 1806.917969 1290.269531 1806.890625 "/>
<path fill-rule="evenodd" fill="rgb(1.567078%, 84.764099%, 89.0625%)" fill-opacity="1" d="M 622.730469 932.558594 L 1344.738281 932.558594 C 1404.898438 932.558594 1454.128906 981.78125 1454.128906 1041.949219 L 1454.128906 1140.398438 C 1454.128906 1200.570312 1404.898438 1249.800781 1344.738281 1249.800781 L 1297.710938 1249.800781 C 1322.78125 1272.328125 1349.351562 1295.46875 1349.351562 1295.46875 L 1187.328125 1249.800781 L 622.730469 1249.800781 C 562.566406 1249.800781 513.335938 1200.570312 513.335938 1140.398438 L 513.335938 1041.949219 C 513.335938 981.78125 562.566406 932.558594 622.730469 932.558594 "/>
<path fill-rule="evenodd" fill="rgb(100%, 100%, 100%)" fill-opacity="1" d="M 593.171875 1019.378906 L 1374.300781 1019.378906 C 1377.148438 1019.378906 1379.480469 1021.710938 1379.480469 1024.570312 L 1379.480469 1029.238281 C 1379.480469 1032.089844 1377.148438 1034.429688 1374.300781 1034.429688 L 593.171875 1034.429688 C 590.316406 1034.429688 587.984375 1032.089844 587.984375 1029.238281 L 587.984375 1024.570312 C 587.984375 1021.710938 590.316406 1019.378906 593.171875 1019.378906 "/>
<path fill-rule="evenodd" fill="rgb(100%, 100%, 100%)" fill-opacity="1" d="M 593.171875 1086.039062 L 1374.300781 1086.039062 C 1377.148438 1086.039062 1379.480469 1088.378906 1379.480469 1091.230469 L 1379.480469 1095.898438 C 1379.480469 1098.75 1377.148438 1101.089844 1374.300781 1101.089844 L 593.171875 1101.089844 C 590.316406 1101.089844 587.984375 1098.75 587.984375 1095.898438 L 587.984375 1091.230469 C 587.984375 1088.378906 590.316406 1086.039062 593.171875 1086.039062 "/>
<path fill-rule="evenodd" fill="rgb(100%, 100%, 100%)" fill-opacity="1" d="M 593.171875 1151.679688 L 1079.390625 1151.679688 C 1082.238281 1151.679688 1084.578125 1154.019531 1084.578125 1156.871094 L 1084.578125 1161.539062 C 1084.578125 1164.390625 1082.238281 1166.730469 1079.390625 1166.730469 L 593.171875 1166.730469 C 590.316406 1166.730469 587.984375 1164.390625 587.984375 1161.539062 L 587.984375 1156.871094 C 587.984375 1154.019531 590.316406 1151.679688 593.171875 1151.679688 "/>
<path fill-rule="evenodd" fill="rgb(5.880737%, 73.242188%, 76.951599%)" fill-opacity="1" d="M 1749.5 478.761719 L 1027.488281 478.761719 C 967.324219 478.761719 918.097656 527.988281 918.097656 588.160156 L 918.097656 686.609375 C 918.097656 746.78125 967.324219 796.011719 1027.488281 796.011719 L 1074.519531 796.011719 C 1049.449219 818.539062 1022.878906 841.679688 1022.878906 841.679688 L 1184.890625 796.011719 L 1749.5 796.011719 C 1809.660156 796.011719 1858.890625 746.78125 1858.890625 686.609375 L 1858.890625 588.160156 C 1858.890625 527.988281 1809.660156 478.761719 1749.5 478.761719 "/>
<path fill-rule="evenodd" fill="rgb(100%, 100%, 100%)" fill-opacity="1" d="M 1779.058594 565.589844 L 997.929688 565.589844 C 995.078125 565.589844 992.742188 567.921875 992.742188 570.78125 L 992.742188 575.441406 C 992.742188 578.300781 995.078125 580.628906 997.929688 580.628906 L 1779.058594 580.628906 C 1781.910156 580.628906 1784.238281 578.300781 1784.238281 575.441406 L 1784.238281 570.78125 C 1784.238281 567.921875 1781.910156 565.589844 1779.058594 565.589844 "/>
<path fill-rule="evenodd" fill="rgb(100%, 100%, 100%)" fill-opacity="1" d="M 1779.058594 632.25 L 997.929688 632.25 C 995.078125 632.25 992.742188 634.589844 992.742188 637.441406 L 992.742188 642.109375 C 992.742188 644.960938 995.078125 647.300781 997.929688 647.300781 L 1779.058594 647.300781 C 1781.910156 647.300781 1784.238281 644.960938 1784.238281 642.109375 L 1784.238281 637.441406 C 1784.238281 634.589844 1781.910156 632.25 1779.058594 632.25 "/>
<path fill-rule="evenodd" fill="rgb(100%, 100%, 100%)" fill-opacity="1" d="M 1779.058594 697.890625 L 1292.839844 697.890625 C 1289.980469 697.890625 1287.648438 700.21875 1287.648438 703.078125 L 1287.648438 707.738281 C 1287.648438 710.601562 1289.980469 712.929688 1292.839844 712.929688 L 1779.058594 712.929688 C 1781.910156 712.929688 1784.238281 710.601562 1784.238281 707.738281 L 1784.238281 703.078125 C 1784.238281 700.21875 1781.910156 697.890625 1779.058594 697.890625 "/>
<path fill-rule="evenodd" fill="rgb(98.826599%, 89.0625%, 76.951599%)" fill-opacity="1" d="M 1696.410156 1334.199219 C 1716.398438 1315.96875 1674.941406 1210.851562 1667.121094 1180.449219 L 1641.75 1188.609375 L 1655.171875 1310.140625 C 1653.820312 1326.429688 1688.269531 1341.621094 1696.410156 1334.199219 "/>
<path fill-rule="evenodd" fill="rgb(98.826599%, 89.0625%, 76.951599%)" fill-opacity="1" d="M 1668.460938 1195.511719 L 1667.121094 1180.449219 L 1670.121094 1170.46875 L 1672.109375 1161.398438 L 1671.621094 1151.640625 C 1672.230469 1147.820312 1672.769531 1146.269531 1671.769531 1142.761719 L 1671.640625 1137.550781 C 1671.191406 1136.160156 1672.238281 1128.640625 1671.339844 1124.300781 C 1670.53125 1120.308594 1667.761719 1119.410156 1667.261719 1119.558594 C 1663.941406 1120.558594 1663.929688 1142.378906 1663.46875 1145.339844 L 1661.648438 1133.648438 L 1660.960938 1127.679688 L 1658.960938 1119.980469 L 1657.078125 1114.21875 L 1655.738281 1109.820312 L 1654.261719 1106.871094 C 1652.101562 1106.128906 1650.730469 1106.441406 1649.859375 1107.390625 C 1647.191406 1110.339844 1649.109375 1117.351562 1649.671875 1120.570312 L 1651.679688 1130.738281 L 1652.039062 1136.089844 L 1650.851562 1133.359375 L 1650.050781 1127.261719 L 1648.601562 1121.578125 L 1647.140625 1118.179688 L 1644.820312 1114.261719 L 1640 1105.878906 L 1638.238281 1102.390625 C 1631.929688 1102.691406 1630.808594 1105.851562 1632.769531 1111.179688 C 1636.910156 1116.710938 1637.800781 1118.539062 1639.539062 1125.589844 L 1636.808594 1121.449219 L 1630.679688 1109.210938 C 1630.039062 1108.558594 1629.671875 1108.128906 1629.308594 1107.980469 C 1628.769531 1107.738281 1628.25 1108.109375 1626.789062 1109.25 C 1623.410156 1111.878906 1625.128906 1114.089844 1626.988281 1118.421875 L 1630.238281 1125.851562 C 1631.941406 1130.300781 1633.898438 1134.820312 1634.75 1139.640625 C 1635.039062 1141.269531 1635.199219 1142.929688 1635.179688 1144.628906 L 1633.761719 1146.960938 L 1632.640625 1146.769531 C 1629.769531 1140.128906 1631.109375 1142.75 1626.878906 1137.109375 L 1625.078125 1133.878906 L 1622.589844 1133.488281 C 1620.601562 1135.761719 1620.480469 1138.109375 1621.148438 1140.390625 C 1623.148438 1147.179688 1625.839844 1151.789062 1627.851562 1159.71875 C 1632.410156 1179.128906 1636.328125 1179.878906 1642 1189 L 1646.488281 1204.21875 L 1668.460938 1195.511719 "/>
<path fill-rule="evenodd" fill="rgb(32.151794%, 28.637695%, 61.131287%)" fill-opacity="1" d="M 1565.300781 1424.484375 C 1606.070312 1405.117188 1628.171875 1379.578125 1662.140625 1360.71875 C 1693.230469 1343.449219 1719.320312 1330.289062 1701.789062 1316.179688 C 1701.699219 1324.480469 1700.101562 1330.828125 1696.398438 1334.199219 C 1688.269531 1341.621094 1653.820312 1326.429688 1655.171875 1310.140625 L 1653.761719 1297.378906 C 1648.609375 1297.050781 1646.570312 1303.570312 1641.351562 1310.058594 L 1563.488281 1343.25 C 1556.820312 1345.871094 1550.691406 1348.769531 1545.089844 1351.871094 C 1536.101562 1350.289062 1524.5 1348.539062 1512.550781 1347.261719 L 1509.421875 1382.300781 L 1505.089844 1430.734375 L 1492.851562 1567.742188 L 1486.710938 1636.457031 L 1485.199219 1653.316406 L 1535.308594 1621.289062 L 1551.519531 1610.929688 C 1552.488281 1592.507812 1557.898438 1427.996094 1565.300781 1424.484375 "/>
<path fill-rule="evenodd" fill="rgb(32.151794%, 28.637695%, 61.131287%)" fill-opacity="1" d="M 1366.871094 1609.074219 C 1365.929688 1608.519531 1364.980469 1607.957031 1364.039062 1607.386719 Z M 1380.761719 1475.824219 L 1380.761719 1475.820312 Z M 1380.761719 1475.820312 L 1380.761719 1475.816406 Z M 1380.761719 1475.816406 L 1380.761719 1475.824219 Z M 1380.761719 1475.824219 L 1347.78125 1608.875 L 1362.390625 1618.515625 L 1412.050781 1651.265625 L 1415.320312 1630.628906 L 1420.921875 1595.253906 L 1421.390625 1592.300781 L 1423.011719 1582.078125 L 1460.769531 1343.859375 C 1449.308594 1342.058594 1440.890625 1341.640625 1434.5 1342.511719 C 1418.480469 1343.46875 1393.109375 1359.789062 1367.050781 1397.011719 L 1332.421875 1441.183594 C 1324.488281 1447.875 1319.339844 1454.441406 1316.148438 1460.738281 C 1307.621094 1477.527344 1312.898438 1492.402344 1315.941406 1502.605469 C 1317.171875 1506.613281 1318.441406 1509.996094 1319.761719 1512.8125 C 1332.351562 1539.621094 1349.46875 1514.925781 1371.789062 1487.109375 C 1374.691406 1483.488281 1377.699219 1479.714844 1380.761719 1475.824219 "/>
<path fill-rule="evenodd" fill="rgb(94.921875%, 68.164062%, 18.431091%)" fill-opacity="1" d="M 1277.101562 1803.894531 C 1293.511719 1810.246094 1313.148438 1809.28125 1330.5 1808.222656 C 1344.449219 1807.371094 1349.128906 1802.933594 1338.320312 1796.761719 C 1329.808594 1791.898438 1305.410156 1790.609375 1285.460938 1786.269531 C 1281.070312 1785.3125 1277.828125 1784.789062 1276.519531 1785.003906 C 1267.730469 1786.429688 1266.769531 1799.890625 1277.101562 1803.894531 "/>
<path fill-rule="evenodd" fill="rgb(94.921875%, 68.164062%, 18.431091%)" fill-opacity="1" d="M 1489.339844 1847.378906 C 1504.179688 1837.929688 1515.050781 1821.539062 1524.480469 1806.941406 C 1532.058594 1795.203125 1531.261719 1788.800781 1519.890625 1793.847656 C 1510.921875 1797.824219 1495.421875 1816.707031 1480.101562 1830.199219 C 1476.730469 1833.164062 1474.390625 1835.46875 1473.78125 1836.648438 C 1469.71875 1844.570312 1479.988281 1853.328125 1489.339844 1847.378906 "/>
<path fill-rule="evenodd" fill="rgb(25.87738%, 3.529358%, 11.767578%)" fill-opacity="1" d="M 814.667969 1157.648438 C 817.988281 1160.671875 831.167969 1178.421875 831.167969 1178.421875 C 843.410156 1190.871094 854.820312 1203.171875 870.855469 1210.558594 C 874.296875 1212.140625 877.691406 1213.730469 880.535156 1215.289062 C 885.414062 1217.980469 889.808594 1226.140625 882.410156 1230.078125 C 866.992188 1238.289062 833.269531 1221.75 817.265625 1216.738281 C 812.328125 1215.199219 807.273438 1214.101562 802.28125 1212.78125 C 794.601562 1210.75 784.253906 1208.789062 777.605469 1204.601562 C 767.492188 1198.21875 772.023438 1192.289062 782.269531 1173.558594 C 783.835938 1170.699219 789.449219 1159.699219 788.960938 1155.769531 L 793.316406 1161.730469 L 800.367188 1158.601562 L 814.667969 1157.648438 "/>
<path fill-rule="evenodd" fill="rgb(98.826599%, 89.0625%, 76.951599%)" fill-opacity="1" d="M 524.402344 439.210938 L 523.933594 424.828125 L 519.953125 415.75 L 517.027344 407.410156 L 516.367188 398.128906 C 515.351562 394.601562 514.664062 393.191406 515.210938 389.761719 L 514.726562 384.828125 C 514.992188 383.460938 513.140625 376.480469 513.484375 372.269531 C 513.800781 368.421875 516.308594 367.238281 516.800781 367.328125 C 520.050781 367.890625 522.574219 388.5 523.34375 391.238281 L 523.714844 379.988281 L 523.683594 374.269531 L 524.683594 366.769531 L 525.796875 361.109375 L 526.5625 356.800781 L 527.617188 353.851562 C 529.574219 352.890625 530.902344 353.03125 531.828125 353.828125 C 534.699219 356.308594 533.6875 363.148438 533.53125 366.261719 L 532.800781 376.101562 L 533.078125 381.191406 L 533.890625 378.480469 L 533.941406 372.621094 L 534.65625 367.089844 L 535.640625 363.710938 L 537.386719 359.738281 L 540.972656 351.269531 L 542.234375 347.769531 C 548.230469 347.328125 549.652344 350.179688 548.414062 355.441406 C 545.136719 361.140625 544.511719 362.980469 543.671875 369.828125 L 545.78125 365.609375 L 550.160156 353.339844 C 550.695312 352.648438 550.992188 352.210938 551.3125 352.019531 C 551.796875 351.730469 552.332031 352.03125 553.839844 352.929688 C 557.339844 355.03125 555.964844 357.308594 554.710938 361.609375 L 552.492188 369.011719 C 551.398438 373.410156 550.0625 377.898438 549.816406 382.558594 C 549.730469 384.128906 549.773438 385.710938 549.988281 387.320312 L 551.601562 389.351562 L 552.632812 389.050781 C 554.578125 382.441406 553.613281 385.070312 556.957031 379.261719 L 558.292969 376 L 560.59375 375.339844 C 562.742188 377.261719 563.121094 379.46875 562.75 381.699219 C 561.648438 388.339844 559.632812 393 558.644531 400.730469 C 556.570312 419.589844 552.957031 420.75 548.652344 430.011719 L 546.152344 444.910156 L 524.402344 439.210938 "/>
<path fill-rule="evenodd" fill="rgb(25.87738%, 3.529358%, 11.767578%)" fill-opacity="1" d="M 968.316406 1116.878906 C 972.253906 1119.039062 989.21875 1133.199219 989.21875 1133.199219 C 1004.039062 1142.441406 1018.011719 1151.730469 1035.328125 1155.160156 C 1039.039062 1155.898438 1042.710938 1156.648438 1045.839844 1157.5 C 1051.21875 1158.96875 1057.398438 1165.878906 1051.128906 1171.441406 C 1038.058594 1183.03125 1001.398438 1174.851562 984.671875 1173.71875 C 979.511719 1173.371094 974.339844 1173.488281 969.175781 1173.371094 C 961.230469 1173.199219 950.71875 1173.710938 943.269531 1171.191406 C 931.949219 1167.359375 934.964844 1160.539062 940.542969 1139.929688 C 941.394531 1136.78125 941.699219 1133.699219 940.308594 1130 L 948.515625 1125.839844 L 954.632812 1121.140625 L 968.316406 1116.878906 "/>
<path fill-rule="evenodd" fill="rgb(24.705505%, 10.984802%, 18.821716%)" fill-opacity="1" d="M 629.675781 719.890625 C 518.285156 701.761719 521.882812 586.578125 563.960938 603.800781 C 575.828125 608.648438 592.546875 635.03125 607.640625 617.320312 C 626.871094 594.761719 653.0625 537.730469 679.773438 529.328125 C 703.378906 521.910156 721.546875 524 740.253906 552.351562 C 751.539062 570.679688 751.617188 611.371094 743.554688 628.640625 C 740.328125 635.859375 737.710938 647.328125 744.8125 644.671875 C 871.613281 597.160156 830.65625 737.039062 629.675781 719.890625 "/>
<path fill-rule="evenodd" fill="rgb(38.035583%, 8.250427%, 19.213867%)" fill-opacity="1" d="M 623.359375 847.308594 C 626.78125 874.421875 649.996094 922.230469 693.578125 939.199219 C 725.71875 951.710938 768.796875 953 795.035156 956.128906 C 816.605469 960.75 873.375 982.96875 886.113281 955.761719 C 907.523438 910.050781 820.148438 885.890625 775.582031 868.589844 L 749.5625 855.480469 C 729.949219 845.691406 614.882812 780.140625 623.359375 847.308594 "/>
<path fill-rule="evenodd" fill="rgb(38.035583%, 8.250427%, 19.213867%)" fill-opacity="1" d="M 887.804688 932.558594 C 905.378906 970.101562 924.957031 1011.199219 940.886719 1048.300781 C 946.601562 1061.621094 952.539062 1074.890625 958.9375 1088.128906 L 974.109375 1115.398438 C 965.910156 1139.589844 953.089844 1144.308594 939.007812 1135.898438 C 894.628906 1065.03125 849.941406 1040.800781 848.769531 980.089844 L 842.855469 966.128906 C 842.855469 966.128906 871.394531 956.660156 875.714844 951.320312 C 880.035156 945.980469 880.402344 942.519531 881.066406 940.699219 C 881.730469 938.871094 887.804688 932.558594 887.804688 932.558594 "/>
<path fill-rule="evenodd" fill="rgb(100%, 43.920898%, 48.631287%)" fill-opacity="1" d="M 792.175781 648.789062 L 809.300781 667.421875 L 822.363281 680.039062 L 864.140625 716.191406 C 881.730469 731.269531 879.457031 740.238281 871.609375 760.601562 C 856.019531 763.03125 754 703.269531 724.898438 657.359375 C 723.222656 654.71875 718.234375 645.71875 717.558594 643 C 718.328125 641.011719 719.640625 638.53125 720.539062 636.871094 C 735.226562 609.878906 766.632812 626.660156 792.175781 648.789062 "/>
<path fill-rule="evenodd" fill="rgb(100%, 43.920898%, 48.631287%)" fill-opacity="1" d="M 854.175781 622.140625 C 873.039062 627.519531 866.234375 625.410156 885.171875 620.539062 C 886.945312 651.378906 890.964844 769.511719 871.609375 760.601562 L 858.390625 754.269531 L 840.144531 748.070312 C 844.257812 711.390625 861.671875 667.550781 854.175781 622.140625 "/>
<path fill-rule="evenodd" fill="rgb(100%, 43.920898%, 48.631287%)" fill-opacity="1" d="M 614.988281 619.371094 L 602.859375 605.109375 L 568.414062 559.808594 C 554.050781 540.738281 542.644531 561.488281 521.195312 568.230469 C 535.988281 586.871094 595.246094 682.890625 606.367188 713.660156 C 607.464844 716.699219 631.378906 714.410156 634.125 715.289062 C 636.226562 714.628906 638.863281 713.441406 640.625 712.621094 C 664.707031 701.429688 679.808594 662.960938 653.269531 652.21875 C 651.542969 651.519531 648.953125 650.269531 646.1875 648.71875 C 634.394531 642.109375 624.1875 628.960938 614.988281 619.371094 "/>
<path fill-rule="evenodd" fill="rgb(100%, 43.920898%, 48.631287%)" fill-opacity="1" d="M 552.300781 430.039062 C 532.640625 434.730469 539.738281 432.859375 520.46875 427 C 517.246094 458.660156 507.753906 580.058594 528.078125 571.769531 L 541.972656 565.859375 L 562.175781 565.960938 C 559.605469 528.03125 542.527344 476.441406 552.300781 430.039062 "/>
<path fill-rule="evenodd" fill="rgb(43.530273%, 7.835388%, 20.776367%)" fill-opacity="1" d="M 575.21875 867.230469 C 561.515625 896.320312 591.855469 942.578125 648.921875 956.339844 C 682.445312 964.429688 724.613281 967.230469 750.953125 969.359375 C 772.683594 973.140625 830.269531 993.160156 841.949219 965.480469 C 861.582031 918.980469 773.34375 898.199219 728.144531 882.628906 L 701.640625 870.53125 C 681.664062 861.5 604.066406 805.96875 575.21875 867.230469 "/>
<path fill-rule="evenodd" fill="rgb(43.530273%, 7.835388%, 20.776367%)" fill-opacity="1" d="M 842.582031 958.671875 C 838.742188 999.949219 834.824219 1045.300781 829.789062 1085.359375 C 827.980469 1099.738281 826.386719 1114.191406 825.207031 1128.851562 L 824.484375 1160.050781 C 805.171875 1176.761719 791.730469 1174.339844 783.835938 1159.96875 C 781.425781 1076.378906 755.148438 1032.871094 784.863281 979.910156 L 786.828125 964.878906 C 786.828125 964.878906 816.230469 971.160156 822.660156 968.738281 C 829.09375 966.308594 831.160156 963.511719 832.652344 962.28125 C 834.144531 961.039062 842.582031 958.671875 842.582031 958.671875 "/>
<path fill-rule="evenodd" fill="rgb(100%, 43.920898%, 48.631287%)" fill-opacity="1" d="M 760.882812 637.078125 C 775.519531 637.421875 757.414062 668.53125 760.527344 679.46875 C 783.351562 739.179688 780.191406 729.75 757.105469 771.191406 C 753.257812 778.101562 751.457031 789.28125 745.992188 804.828125 C 734.832031 836.589844 733.386719 846.289062 733.089844 846.949219 C 696.527344 847.191406 603.578125 914.460938 571.449219 854.511719 C 616.003906 805.109375 611.613281 777.019531 604.480469 708.878906 C 638.292969 664.738281 578.410156 656.738281 669.300781 635.648438 C 689.464844 630.980469 708.476562 630.421875 747.234375 623.320312 L 758.613281 626.75 L 760.882812 637.078125 "/>
<path fill-rule="evenodd" fill="rgb(94.921875%, 74.414062%, 59.959412%)" fill-opacity="1" d="M 685.144531 601.328125 L 659.488281 638.03125 L 712.382812 649.890625 L 716.890625 640.390625 L 713.246094 608.730469 L 685.144531 601.328125 "/>
<path fill-rule="evenodd" fill="rgb(94.921875%, 74.414062%, 59.959412%)" fill-opacity="1" d="M 659.492188 638.03125 L 666.558594 638.03125 L 701.78125 642.960938 L 712.382812 649.890625 C 694.859375 668.820312 664.015625 652.878906 659.492188 638.03125 "/>
<path fill-rule="evenodd" fill="rgb(98.826599%, 89.0625%, 76.951599%)" fill-opacity="1" d="M 663.058594 603.730469 C 664.898438 612.988281 666.398438 623.628906 670.875 631.789062 C 678.898438 646.410156 694.1875 654.660156 712.605469 645.898438 C 713.160156 645.628906 713.695312 645.359375 714.210938 645.058594 C 726.03125 638.261719 730.152344 623.429688 731.152344 613.398438 C 731.230469 612.621094 731.449219 611.890625 731.605469 611.160156 C 734.46875 595.808594 736.027344 584.660156 730.871094 573.109375 C 721.851562 552.910156 685.070312 540.359375 669.691406 565.070312 C 661.710938 577.898438 663.292969 589.398438 663.058594 603.730469 "/>
<path fill-rule="evenodd" fill="rgb(98.826599%, 89.0625%, 76.951599%)" fill-opacity="1" d="M 663.679688 607.871094 L 669.335938 609.570312 L 667.75 603.429688 C 667.242188 602.359375 664.746094 596.800781 662.636719 592.71875 C 654.628906 577.25 646.503906 601.328125 663.679688 607.871094 "/>
<path fill-rule="evenodd" fill="rgb(98.826599%, 89.0625%, 76.951599%)" fill-opacity="1" d="M 729.558594 611.800781 L 732.128906 602.140625 C 735.195312 595.101562 740.710938 594.109375 739.320312 602.351562 C 737.300781 614.351562 735.445312 612.769531 729.148438 618.050781 L 729.558594 611.800781 "/>
<path fill-rule="evenodd" fill="rgb(24.705505%, 10.984802%, 18.821716%)" fill-opacity="1" d="M 688.507812 552.78125 C 688.507812 552.78125 732.265625 589.03125 735.875 589.371094 C 739.484375 589.71875 739.074219 581.289062 739.074219 581.289062 L 736.609375 567.789062 L 723.65625 554.980469 L 710.773438 548.871094 L 696.328125 547.480469 L 688.507812 552.78125 "/>
<path fill-rule="evenodd" fill="rgb(24.705505%, 10.984802%, 18.821716%)" fill-opacity="1" d="M 693.570312 549.460938 C 693.570312 549.460938 663.792969 581.519531 661.660156 577.859375 C 659.527344 574.199219 663.535156 569.089844 663.535156 569.089844 L 669.898438 553.789062 L 683.1875 547.828125 L 693.570312 549.460938 "/>
<path fill-rule="evenodd" fill="rgb(100%, 52.539062%, 50.976562%)" fill-opacity="1" d="M 698.246094 546.019531 L 693.933594 547.328125 C 690.230469 548.460938 688.121094 552.410156 689.25 556.109375 C 690.375 559.820312 694.328125 561.921875 698.03125 560.800781 L 702.34375 559.480469 C 703.675781 559.078125 704.429688 557.660156 704.027344 556.328125 L 701.398438 547.699219 C 700.996094 546.371094 699.578125 545.621094 698.246094 546.019531 "/>
<path fill-rule="evenodd" fill="rgb(100%, 52.539062%, 50.976562%)" fill-opacity="1" d="M 667.960938 555.238281 L 672.273438 553.921875 C 675.976562 552.800781 679.929688 554.910156 681.054688 558.609375 C 682.179688 562.308594 680.074219 566.261719 676.371094 567.390625 L 672.054688 568.699219 C 670.726562 569.109375 669.308594 568.351562 668.902344 567.019531 L 666.277344 558.390625 C 665.871094 557.058594 666.628906 555.640625 667.960938 555.238281 "/>
<path fill-rule="evenodd" fill="rgb(100%, 36.863708%, 38.818359%)" fill-opacity="1" d="M 678.984375 552.109375 L 687.347656 549.570312 C 688.636719 549.171875 690.011719 549.910156 690.402344 551.191406 L 692.945312 559.558594 C 693.339844 560.851562 692.605469 562.21875 691.316406 562.609375 L 682.953125 565.160156 C 681.667969 565.550781 680.292969 564.820312 679.902344 563.53125 L 677.355469 555.160156 C 676.964844 553.878906 677.699219 552.5 678.984375 552.109375 "/>
<path fill-rule="evenodd" fill="rgb(100%, 52.539062%, 50.976562%)" fill-opacity="1" d="M 681.277344 554.058594 L 686.53125 552.460938 C 687.339844 552.21875 688.203125 552.679688 688.449219 553.488281 L 690.046875 558.738281 C 690.296875 559.550781 689.835938 560.410156 689.023438 560.660156 L 683.773438 562.261719 C 682.964844 562.5 682.101562 562.039062 681.855469 561.230469 L 680.253906 555.980469 C 680.007812 555.171875 680.46875 554.308594 681.277344 554.058594 "/>
</svg>
